<svg width="42" height="42" viewBox="0 0 42 42" fill="none" xmlns="http://www.w3.org/2000/svg">
<path d="M1.01559 20.9532C1.01559 9.9166 9.96333 1 21.0467 1C32.0365 1 41.0466 10.0413 40.9998 21.1091C40.9531 32.099 31.9897 41 20.9064 41C9.91656 41 1 32.021 1 20.9688L1.01559 20.9532Z" stroke="#13100D" stroke-width="0.41" stroke-miterlimit="10"/>
<path d="M30.8049 20.9842C30.8049 22.278 30.8049 23.5719 30.8049 24.8657C30.8049 25.7387 30.6646 26.596 30.3216 27.4066C29.5422 29.3084 28.0613 30.2749 26.0972 30.5867C25.5204 30.6802 24.9436 30.6958 24.3513 30.6958C21.9507 30.6958 19.5501 30.6958 17.1339 30.6958C16.1986 30.6958 15.2788 30.5399 14.4059 30.1814C12.6444 29.4487 11.6779 28.077 11.335 26.2375C11.2414 25.7231 11.1947 25.1931 11.1947 24.6631C11.1947 21.9975 11.1323 19.3474 11.2259 16.6818C11.3038 14.5306 12.2235 12.8003 14.2656 11.865C15.1541 11.4597 16.105 11.2882 17.0715 11.2882C19.6748 11.2882 22.278 11.2726 24.8813 11.2882C26.0037 11.2882 27.0948 11.5064 28.0925 12.052C29.6981 12.9406 30.5399 14.3747 30.6958 16.1362C30.8361 17.7418 30.7893 19.3786 30.8205 20.9842H30.7893H30.8049ZM20.9842 28.8564C20.9842 28.8564 20.9842 28.9187 20.9842 28.9499C22.5586 28.9031 24.133 28.9031 25.7075 28.794C27.1728 28.6849 28.2328 27.9055 28.716 26.5025C28.9031 25.9725 28.9966 25.3957 28.9966 24.8346C29.0278 22.3404 28.9966 19.8618 28.9966 17.3677C28.9966 17.0247 28.9966 16.6662 28.9343 16.3233C28.7004 14.9515 28.0301 13.8759 26.6584 13.4238C26.1595 13.2523 25.6295 13.1432 25.1151 13.1432C22.3716 13.112 19.628 13.112 16.8844 13.1432C16.3233 13.1432 15.7153 13.2679 15.1853 13.4862C13.6576 14.0941 13.0497 15.3724 13.0185 16.9156C12.9562 19.6436 12.9873 22.3716 13.0185 25.1151C13.0185 25.801 13.2056 26.4713 13.5485 27.0793C14.2812 28.4043 15.4971 28.8408 16.9 28.8876C18.2718 28.9343 19.628 28.8876 20.9998 28.8876L20.9842 28.8564Z" fill="#13100D"/>
<path d="M21.0153 15.8398C23.8679 15.8398 26.1439 18.1469 26.1439 21.0308C26.1439 23.8523 23.8368 26.1594 21.0153 26.1594C18.1314 26.1594 15.8243 23.8679 15.8399 20.984C15.8399 18.1158 18.147 15.8398 21.0153 15.8398ZM20.9841 17.6481C19.1447 17.6481 17.617 19.1914 17.6482 21.0152C17.6638 22.8391 19.1603 24.3356 20.9841 24.3511C22.8079 24.3511 24.3356 22.8391 24.3356 20.9996C24.3356 19.1758 22.8079 17.6481 20.9841 17.6481Z" fill="#13100D"/>
<path d="M26.1904 16.8682C25.6137 16.8682 25.1772 16.4162 25.1928 15.8238C25.1928 15.2626 25.6449 14.8261 26.206 14.8105C26.7672 14.8105 27.2349 15.2782 27.2349 15.8394C27.2349 16.4006 26.7672 16.8526 26.1904 16.8526V16.8682Z" fill="#13100D"/>
</svg>
