<svg width="42" height="42" viewBox="0 0 42 42" fill="none" xmlns="http://www.w3.org/2000/svg">
<path d="M1.01559 22.4823C1.01559 21.4995 1.01559 20.501 1.01559 19.5182C1.04678 19.4246 1.07796 19.331 1.09355 19.2218C1.23388 18.317 1.31184 17.381 1.53013 16.4917C4.02486 5.77424 14.5495 -0.871548 25.2924 1.46852C35.3493 3.65258 42.506 13.4184 40.7285 24.2919C39.9957 28.7849 37.9063 32.607 34.5541 35.6959C31.7007 38.3323 28.3484 40.0172 24.5128 40.688C23.8111 40.8128 23.1095 40.8908 22.3923 41H19.5857C19.461 40.9688 19.3362 40.9376 19.2115 40.922C18.5566 40.8284 17.8862 40.7816 17.2469 40.6568C13.3489 39.8924 9.94983 38.1451 7.09649 35.3682C3.90012 32.2482 1.91993 28.4729 1.23388 24.0579C1.15592 23.5275 1.07796 23.0127 1 22.4823H1.01559Z" stroke="#13100D" stroke-width="0.41" stroke-miterlimit="10"/>
<path d="M29.8139 29.7988H26.1965C26.1965 29.7052 26.1965 29.6116 26.1965 29.5024C26.1965 27.568 26.1965 25.6335 26.1965 23.699C26.1965 23.2466 26.1498 22.7942 26.0562 22.3574C25.8223 21.2498 25.0427 20.8286 23.9825 20.9534C22.8443 21.0938 22.2518 21.7802 22.1426 22.997C22.1114 23.387 22.0958 23.777 22.0958 24.1671C22.0958 25.9455 22.0958 27.7084 22.0958 29.4868V29.7832H18.4629V18.0517H21.9555V19.6117C21.9555 19.6117 22.0023 19.6429 22.0335 19.6585C22.0335 19.6273 22.0335 19.5961 22.0647 19.5649C22.9534 18.1765 24.2787 17.6929 25.8535 17.7553C26.5084 17.7865 27.1477 17.8957 27.7402 18.1921C28.7692 18.6913 29.2994 19.5649 29.58 20.6258C29.8139 21.515 29.8607 22.4198 29.8607 23.3246C29.8607 25.4151 29.8607 27.5212 29.8607 29.6116C29.8607 29.674 29.8607 29.7208 29.8607 29.8144L29.8139 29.7988Z" fill="#13100D"/>
<path d="M12.4756 29.7833V18.0518H16.1085V29.7833H12.4756Z" fill="#13100D"/>
<path d="M14.3155 12.1857C15.4693 12.1857 16.4049 13.1218 16.4205 14.2918C16.4205 15.4618 15.4537 16.4291 14.2843 16.4135C13.1305 16.4135 12.1794 15.4462 12.195 14.2762C12.195 13.0906 13.1461 12.1701 14.3155 12.1857Z" fill="#13100D"/>
</svg>
