<svg width="44" height="44" viewBox="0 0 44 44" fill="none" xmlns="http://www.w3.org/2000/svg">
<g clip-path="url(#clip0_548_272)">
<path d="M22 0C16.1219 0 10.6012 2.28937 6.44187 6.44187C2.28937 10.6012 0 16.1219 0 22C0 27.8781 2.28937 33.3988 6.44187 37.5581C10.5944 41.7106 16.1219 44 22 44C27.8781 44 33.3988 41.7106 37.5581 37.5581C41.7106 33.4056 44 27.8781 44 22C44 16.1219 41.7106 10.6012 37.5581 6.44187C33.3988 2.28937 27.8781 0 22 0ZM35.6125 35.6125C31.9756 39.2494 27.1425 41.25 22 41.25C16.8575 41.25 12.0244 39.2494 8.3875 35.6125C4.75062 31.9756 2.75 27.1425 2.75 22C2.75 16.8575 4.75062 12.0244 8.3875 8.3875C12.0244 4.75062 16.8575 2.75 22 2.75C27.1425 2.75 31.9756 4.75062 35.6125 8.3875C39.2494 12.0244 41.25 16.8575 41.25 22C41.25 27.1425 39.2494 31.9756 35.6125 35.6125Z" fill="white"/>
<path d="M29.04 20.9205L19.415 13.358C19.0025 13.0349 18.4387 12.973 17.9644 13.1999C17.49 13.4267 17.1875 13.908 17.1875 14.4374V29.5624C17.1875 30.0917 17.49 30.5661 17.9575 30.7999C18.15 30.8892 18.3563 30.9374 18.5625 30.9374C18.865 30.9374 19.1675 30.8342 19.415 30.6417L29.04 23.0792C29.37 22.818 29.5625 22.4192 29.5625 21.9999C29.5625 21.5805 29.37 21.1817 29.04 20.9205ZM19.9375 26.7367V17.2699L25.96 22.0067L19.9375 26.7367Z" fill="white"/>
</g>
<defs>
<clipPath id="clip0_548_272">
<rect width="44" height="44" fill="white"/>
</clipPath>
</defs>
</svg>
