<svg width="42" height="42" viewBox="0 0 42 42" fill="none" xmlns="http://www.w3.org/2000/svg">
<path d="M21 41C32.0457 41 41 32.0457 41 21C41 9.9543 32.0457 1 21 1C9.9543 1 1 9.9543 1 21C1 32.0457 9.9543 41 21 41Z" stroke="#13100D" stroke-width="0.41" stroke-miterlimit="10"/>
<path d="M12.7224 13.0967C12.7224 13.0967 12.8627 13.1123 12.9406 13.1123C14.4527 13.1123 15.9648 13.1123 17.4924 13.1123C17.6171 13.1123 17.6951 13.1434 17.7574 13.2526C19.098 15.0608 20.4542 16.8535 21.7949 18.6618C21.826 18.7085 21.8728 18.7553 21.9196 18.8176C22.2001 18.5215 22.4807 18.2253 22.7457 17.9291C24.1955 16.3703 25.6296 14.8114 27.0793 13.2526C27.1729 13.159 27.2508 13.1279 27.3755 13.1279C27.7496 13.1279 28.1082 13.1279 28.4823 13.1279C28.5291 13.1279 28.5914 13.1279 28.6849 13.1279C26.6429 15.3414 24.6164 17.5238 22.5899 19.7062C22.7769 19.9556 22.9484 20.205 23.1355 20.4388C25.2087 23.2136 27.2976 26.0039 29.3708 28.7787C29.3864 28.7943 29.402 28.8254 29.4332 28.841V28.9034C27.8276 28.9034 26.222 28.9034 24.6164 28.9034C24.4917 28.9034 24.4137 28.8722 24.3358 28.7631C22.886 26.8145 21.4207 24.8504 19.9554 22.9018C19.9086 22.8395 19.8619 22.7771 19.8151 22.7148C19.4722 23.0889 19.1292 23.463 18.7863 23.8371C17.2586 25.4895 15.7309 27.1419 14.2033 28.7943C14.1253 28.8878 14.0474 28.919 13.9227 28.919C13.5018 28.919 13.0809 28.919 12.5977 28.919C14.8112 26.5339 16.978 24.1801 19.1604 21.8418C18.7083 21.2339 18.2407 20.6259 17.7886 20.018C16.1051 17.7732 14.4215 15.5285 12.7535 13.2837C12.7224 13.237 12.7224 13.1746 12.7068 13.1279H12.738L12.7224 13.0967ZM27.2664 27.8122C27.204 27.7187 27.1573 27.6719 27.1261 27.6095C23.8214 23.1824 20.501 18.7553 17.1963 14.3282C17.1339 14.2346 17.056 14.2035 16.9468 14.2035C16.2921 14.2035 15.6218 14.2035 14.9671 14.2035C14.9359 14.2035 14.8892 14.2035 14.8268 14.2035C14.8736 14.2658 14.9047 14.3126 14.9359 14.3593C17.2586 17.4615 19.5657 20.548 21.8884 23.6501C22.886 24.9907 23.8837 26.3313 24.897 27.6563C24.9437 27.7187 25.0217 27.781 25.084 27.781C25.8011 27.781 26.5182 27.781 27.282 27.781L27.2664 27.8122Z" fill="#13100D"/>
</svg>
