<svg width="42" height="42" viewBox="0 0 42 42" fill="none" xmlns="http://www.w3.org/2000/svg">
<path d="M1.01559 22.4823C1.01559 21.4995 1.01559 20.501 1.01559 19.5182C1.04678 19.4246 1.07796 19.331 1.09355 19.2218C1.23388 18.317 1.31184 17.381 1.53013 16.4917C4.02486 5.77424 14.5495 -0.871548 25.2924 1.46852C35.3493 3.65258 42.506 13.4184 40.7285 24.2919C39.9957 28.7849 37.9063 32.607 34.5541 35.6959C31.7007 38.3323 28.3484 40.0172 24.5128 40.688C23.8111 40.8128 23.1095 40.8908 22.3923 41H19.5857C19.461 40.9688 19.3362 40.9376 19.2115 40.922C18.5566 40.8284 17.8862 40.7816 17.2469 40.6568C13.3489 39.8924 9.94983 38.1451 7.09649 35.3682C3.90012 32.2482 1.91993 28.4729 1.23388 24.0579C1.15592 23.5275 1.07796 23.0127 1 22.4823H1.01559Z" stroke="#13100D" stroke-width="0.41" stroke-miterlimit="10"/>
<g clip-path="url(#clip0_548_238)">
<path d="M24.1764 20.3693C24.5222 20.5464 24.6599 20.9749 24.4834 21.322C24.4164 21.453 24.3105 21.5628 24.1764 21.6301L21.9705 22.7705L19.5564 24.0137C19.2105 24.1908 18.7834 24.0526 18.6069 23.7055C18.5575 23.6064 18.5293 23.4966 18.5293 23.3868V18.6126C18.5293 18.223 18.8469 17.9043 19.2352 17.9043C19.3481 17.9043 19.4575 17.9326 19.5564 17.9822L21.9705 19.2289L24.1764 20.3693Z" fill="black" stroke="#13100D" stroke-linecap="round" stroke-linejoin="round"/>
<path d="M28.5881 13.0312H13.4116C11.2675 13.0312 9.5293 14.7755 9.5293 16.9271V25.0729C9.5293 27.2245 11.2675 28.9688 13.4116 28.9688H28.5881C30.7323 28.9688 32.4705 27.2245 32.4705 25.0729V16.9271C32.4705 14.7755 30.7323 13.0312 28.5881 13.0312Z" stroke="#13100D" stroke-linecap="round" stroke-linejoin="round"/>
</g>
<defs>
<clipPath id="clip0_548_238">
<rect width="24" height="17" fill="white" transform="translate(9 12.5)"/>
</clipPath>
</defs>
</svg>
